<svg xmlns="http://www.w3.org/2000/svg" xmlns:xlink="http://www.w3.org/1999/xlink" version="1.1" width="256" height="256" viewBox="0 0 256 256" xml:space="preserve">
<desc>Created with Fabric.js 1.7.22</desc>
<defs>
</defs>
<g transform="translate(128 128) scale(0.72 0.72)" style="">
	<g style="stroke: none; stroke-width: 0; stroke-dasharray: none; stroke-linecap: butt; stroke-linejoin: miter; stroke-miterlimit: 10; fill: none; fill-rule: nonzero; opacity: 1;" transform="translate(-175.05 -175.05000000000004) scale(3.89 3.89)" >
	<path d="M 4.809 48.297 c -0.583 -0.346 -1.102 -0.648 -1.642 -0.951 c -1.534 -0.886 -2.7 -2.182 -3.003 -3.932 c -0.475 -2.808 -0.043 -5.185 2.938 -6.978 c 3.759 -2.247 7.561 -4.385 11.363 -6.567 c 3.716 -2.117 8.62 0.346 9.181 4.601 c 0.389 2.592 -0.886 5.141 -3.197 6.394 c -0.497 0.281 -1.015 0.583 -1.577 0.929 c 0.562 0.324 1.037 0.626 1.534 0.907 c 3.953 2.225 4.472 7.475 0.994 10.369 c -0.691 0.562 -1.512 0.972 -2.29 1.426 c -3.262 1.901 -6.546 3.802 -9.829 5.66 c -3.046 1.642 -6.848 0.475 -8.49 -2.571 c -1.555 -2.895 -0.605 -6.481 2.16 -8.231 C 3.578 49.032 4.161 48.686 4.809 48.297 z" style="stroke: none; stroke-width: 1; stroke-dasharray: none; stroke-linecap: butt; stroke-linejoin: miter; stroke-miterlimit: 10; fill: rgb(253,0,0); fill-rule: nonzero; opacity: 1;" transform=" matrix(1 0 0 1 0 0) " stroke-linecap="round" />
	<path d="M 41.556 56.183 V 33.219 h 3.564 v 8.425 c 0.108 -0.173 0.259 -0.41 0.432 -0.648 c 1.188 -1.599 3.781 -1.879 5.033 -0.475 c 0.367 0.454 0.648 0.994 0.778 1.555 c 0.151 0.562 0.216 1.123 0.216 1.707 c 0.022 4.018 0 8.036 0 12.054 c 0 0.108 0 0.216 -0.022 0.346 h -3.651 v -0.497 c 0 -3.824 0 -7.647 0 -11.471 c 0 -0.389 -0.043 -0.799 -0.151 -1.188 c -0.173 -0.605 -0.648 -0.864 -1.275 -0.756 c -0.778 0.108 -1.339 0.799 -1.296 1.577 v 12.335 L 41.556 56.183 L 41.556 56.183 z" style="stroke: none; stroke-width: 1; stroke-dasharray: none; stroke-linecap: butt; stroke-linejoin: miter; stroke-miterlimit: 10; fill: rgb(0,0,0); fill-rule: nonzero; opacity: 1;" transform=" matrix(1 0 0 1 0 0) " stroke-linecap="round" />
	<path d="M 30.063 49.918 h 3.348 c 0 0.497 -0.022 1.015 0 1.512 c 0.022 0.389 0.086 0.799 0.194 1.167 c 0.238 0.843 0.778 1.21 1.599 1.167 c 0.821 -0.043 1.318 -0.497 1.491 -1.318 c 0.367 -1.944 -0.194 -3.629 -1.599 -5.012 c -0.951 -0.929 -1.966 -1.793 -2.938 -2.7 c -2.376 -2.203 -2.722 -4.969 -2.052 -7.95 c 0.346 -1.534 1.426 -2.484 2.938 -2.895 c 1.21 -0.324 2.484 -0.367 3.716 -0.108 c 1.599 0.346 2.614 1.275 3.046 2.873 c 0.324 1.21 0.302 2.42 0.151 3.672 l -3.262 0.216 c -0.065 -0.864 -0.108 -1.707 -0.173 -2.528 c -0.022 -0.151 -0.043 -0.324 -0.086 -0.475 c -0.216 -0.799 -0.648 -1.145 -1.426 -1.123 c -0.778 0.022 -1.339 0.367 -1.512 1.145 c -0.389 1.685 -0.108 3.197 1.167 4.45 c 1.102 1.08 2.203 2.139 3.327 3.197 c 2.549 2.42 2.852 5.379 1.923 8.576 c -0.389 1.318 -1.339 2.117 -2.679 2.463 c -1.296 0.346 -2.636 0.389 -3.953 0.108 c -1.923 -0.389 -2.96 -1.469 -3.262 -3.413 C 29.868 51.97 29.89 50.933 30.063 49.918 z" style="stroke: none; stroke-width: 1; stroke-dasharray: none; stroke-linecap: butt; stroke-linejoin: miter; stroke-miterlimit: 10; fill: rgb(0,0,0); fill-rule: nonzero; opacity: 1;" transform=" matrix(1 0 0 1 0 0) " stroke-linecap="round" />
	<path d="M 52.983 48.168 c 0.13 -1.512 0.194 -3.003 0.41 -4.493 c 0.13 -0.691 0.367 -1.361 0.713 -1.987 c 0.497 -0.994 1.361 -1.577 2.441 -1.836 c 1.015 -0.238 2.052 -0.259 3.068 -0.065 c 1.858 0.346 2.852 1.599 3.219 3.348 c 0.216 1.102 0.346 2.203 0.367 3.327 c 0.043 2.009 0.13 4.018 -0.238 6.006 c -0.108 0.562 -0.259 1.123 -0.497 1.642 c -0.432 1.059 -1.339 1.858 -2.463 2.117 c -1.231 0.324 -2.528 0.324 -3.759 0 c -1.793 -0.475 -2.592 -1.858 -2.852 -3.521 C 53.135 51.214 53.091 49.68 52.983 48.168 z M 59.551 48.125 h -0.086 c 0 -1.21 0.043 -2.42 -0.022 -3.629 c -0.043 -0.562 -0.151 -1.102 -0.346 -1.62 c -0.216 -0.54 -0.799 -0.799 -1.339 -0.605 c -0.281 0.108 -0.497 0.324 -0.605 0.605 c -0.173 0.475 -0.302 0.994 -0.324 1.491 c -0.043 2.484 -0.043 4.969 0 7.431 c 0.043 0.518 0.151 1.059 0.346 1.534 c 0.13 0.389 0.518 0.648 0.951 0.605 c 0.41 0.043 0.799 -0.194 0.972 -0.583 c 0.151 -0.281 0.238 -0.605 0.281 -0.929 C 59.464 51.019 59.508 49.572 59.551 48.125 z" style="stroke: none; stroke-width: 1; stroke-dasharray: none; stroke-linecap: butt; stroke-linejoin: miter; stroke-miterlimit: 10; fill: rgb(0,0,0); fill-rule: nonzero; opacity: 1;" transform=" matrix(1 0 0 1 0 0) " stroke-linecap="round" />
	<path d="M 80.743 51.235 h 3.068 c 0.065 0.605 0.173 1.21 0.324 1.793 c 0.194 0.67 0.843 1.08 1.512 0.972 c 1.059 -0.151 1.62 -1.145 1.08 -2.117 c -0.346 -0.562 -0.778 -1.059 -1.296 -1.469 c -0.951 -0.821 -1.966 -1.555 -2.916 -2.376 c -1.75 -1.577 -2.074 -3.564 -1.512 -5.746 c 0.324 -1.275 1.231 -2.031 2.484 -2.355 c 1.188 -0.324 2.441 -0.346 3.629 -0.065 c 1.534 0.367 2.398 1.361 2.657 3.111 c 0.108 0.734 0.108 1.491 0.151 2.312 l -1.599 0.086 l -1.491 0.065 c -0.086 -0.734 -0.13 -1.426 -0.259 -2.117 c -0.151 -0.756 -0.583 -1.08 -1.318 -1.037 c -0.907 0.043 -1.339 0.583 -1.275 1.491 c 0.022 0.713 0.367 1.383 0.951 1.836 c 0.994 0.799 2.009 1.555 3.003 2.355 c 0.929 0.756 1.793 1.62 1.966 2.852 c 0.13 0.951 0.13 1.901 0 2.852 c -0.216 1.339 -1.123 2.203 -2.441 2.614 s -2.722 0.432 -4.061 0.065 c -1.534 -0.41 -2.484 -1.491 -2.614 -3.089 C 80.7 52.618 80.743 51.97 80.743 51.235 z" style="stroke: none; stroke-width: 1; stroke-dasharray: none; stroke-linecap: butt; stroke-linejoin: miter; stroke-miterlimit: 10; fill: rgb(0,0,0); fill-rule: nonzero; opacity: 1;" transform=" matrix(1 0 0 1 0 0) " stroke-linecap="round" />
	<path d="M 77.352 42.854 c 0 3.24 -0.022 6.416 0 9.592 c 0 1.188 0.259 1.361 1.447 1.167 c 0.238 -0.043 0.454 -0.108 0.756 -0.173 c 0.151 0.778 0.302 1.555 0.454 2.355 c -1.469 0.583 -2.916 0.843 -4.45 0.54 c -0.734 -0.108 -1.318 -0.67 -1.447 -1.383 c -0.173 -0.778 -0.281 -1.555 -0.302 -2.355 c -0.022 -3.068 -0.022 -6.114 -0.022 -9.16 v -0.518 h -1.296 v -2.895 c 0.367 0 0.713 -0.022 1.059 0 c 0.346 0.022 0.432 -0.086 0.454 -0.41 c 0.108 -1.361 0.259 -2.7 0.389 -4.061 c 0 -0.108 0.043 -0.194 0.065 -0.324 h 2.7 v 4.796 h 2.463 v 2.83 H 77.352 z" style="stroke: none; stroke-width: 1; stroke-dasharray: none; stroke-linecap: butt; stroke-linejoin: miter; stroke-miterlimit: 10; fill: rgb(0,0,0); fill-rule: nonzero; opacity: 1;" transform=" matrix(1 0 0 1 0 0) " stroke-linecap="round" />
	<path d="M 71.648 39.721 c -0.065 1.426 -0.108 2.808 -0.173 4.169 c -0.67 0 -1.296 -0.043 -1.923 0.022 c -0.324 0.065 -0.648 0.194 -0.907 0.41 c -0.324 0.216 -0.497 0.605 -0.475 0.994 c 0.022 3.456 0 6.913 0 10.369 v 0.497 h -3.5 V 39.98 h 2.787 c 0.108 1.167 0.216 2.333 0.324 3.478 h 0.086 c 0.065 -0.41 0.173 -0.799 0.302 -1.188 c 0.238 -0.605 0.54 -1.188 0.907 -1.728 C 69.682 39.721 70.59 39.505 71.648 39.721 z" style="stroke: none; stroke-width: 1; stroke-dasharray: none; stroke-linecap: butt; stroke-linejoin: miter; stroke-miterlimit: 10; fill: rgb(0,0,0); fill-rule: nonzero; opacity: 1;" transform=" matrix(1 0 0 1 0 0) " stroke-linecap="round" />
	<polygon points="8.81,49.79 16.97,45.06 8.81,40.35 " style="stroke: none; stroke-width: 1; stroke-dasharray: none; stroke-linecap: butt; stroke-linejoin: miter; stroke-miterlimit: 10; fill: rgb(255,255,255); fill-rule: nonzero; opacity: 1;" transform="  matrix(1 0 0 1 0 0) "/>
</g>
</g>
</svg>